<svg width="111" height="107" viewBox="0 0 111 107" fill="none" xmlns="http://www.w3.org/2000/svg"><path d="M55.7499.19455V13.4507c8.1585 0 16.1338 2.3324 22.9173 6.7023 6.7836 4.3698 12.0707 10.5808 15.1928 17.8475 3.1221 7.2668 3.939 15.263 2.3473 22.9773-1.5916 7.7144-5.5203 14.8005-11.2892 20.3622l9.7227 9.3735c7.6922-7.4156 12.9302-16.8637 15.0522-27.1495 2.122-10.2858 1.033-20.9474-3.13-30.6364S95.351 14.9573 86.3063 9.13083C77.2616 3.30439 66.6279.194549 55.7499.19455z" fill="#3F3D56"/><path d="M94.6408 90.7135L84.9181 81.34c-7.0524 6.8005-16.4223 10.9063-26.3741 11.5569-9.9518.6505-19.8109-2.1984-27.7509-8.0189l-8.3223 10.5572c10.5884 7.7588 23.7343 11.5558 37.0034 10.6868 13.2691-.868 25.7625-6.3419 35.1666-15.4085z" fill="#575A89"/><path d="M14.5 53.2193c0-10.5473 4.346-20.6625 12.0819-28.1206 7.7358-7.4581 18.2279-11.648 29.1681-11.648V.19455C44.2364.194442 33.013 3.67787 23.662 10.1539 14.3109 16.6298 7.30368 25.7718 3.62801 36.2911-.047666 46.8103-.206414 58.1765 3.17412 68.7874 6.55466 79.3982 13.304 88.7188 22.4708 95.4351l8.3224-10.5572c-5.0673-3.7055-9.1754-8.4922-12.0023-13.9849-2.8268-5.4927-4.2955-11.542-4.2909-17.6737z" fill="#4872EC"/></svg>