<svg width="231" height="449" viewBox="0 0 231 449" fill="none" xmlns="http://www.w3.org/2000/svg"><path d="M143.265 39.9561s-2.55 18.2638 4.008 20.3712c6.557 2.1074 4.736 18.2638 4.736 18.2638l-19.673 14.4003-17.487 1.4049-4.372-21.7761 2.551-5.6196s9.836-11.2393 2.914-22.8297c-6.922-11.5905 27.323-4.2148 27.323-4.2148z" fill="#FFB9B9"/><path opacity=".1" d="M143.265 39.9561s-2.55 18.2638 4.008 20.3712c6.557 2.1074 4.736 18.2638 4.736 18.2638l-19.673 14.4003-17.487 1.4049-4.372-21.7761 2.551-5.6196s9.836-11.2393 2.914-22.8297c-6.922-11.5905 27.323-4.2148 27.323-4.2148z" fill="#000"/><path d="M125.05 182.203l-22.952 51.981s-17.8509-9.834-28.4159-8.78c-10.565 1.053-23.6801-11.239-23.6801-11.239l13.1151-61.114 24.4088-64.9769 33.8811 20.7229 3.643 73.406z" fill="#575A89"/><path opacity=".1" d="M125.05 182.203l-22.952 51.981s-17.8509-9.834-28.4159-8.78c-10.565 1.053-23.6801-11.239-23.6801-11.239l13.1151-61.114 24.4088-64.9769 33.8811 20.7229 3.643 73.406z" fill="#000"/><path d="M161.116 403.125v16.858h-16.393l2.55-19.668 13.843 2.81zM203.741 373.973l12.022 7.025-8.744 19.317-9.107-1.054-8.744-11.941 14.573-13.347z" fill="#575A89"/><path d="M164.395 177.286l21.495 48.82s-7.651 54.089-7.287 58.655c.365 4.566.729 6.322-1.092 10.186-1.822 3.863-2.551 6.322-1.458 10.888 1.093 4.566 1.457 6.322.729 8.078-.729 1.756-5.829 74.109-8.379 79.026-2.55 4.917 1.457 12.995-1.093 13.698-2.55.702-21.495-1.054-22.587-5.268-1.093-4.215 3.643-14.401 1.093-17.562-2.551-3.161.364-116.958-3.279-124.685-3.643-7.727-43.7175-14.752-43.7175-14.752s-3.6431-22.478-1.4572-25.991c2.1859-3.512 5.1007-25.639 5.1007-25.639l61.932-15.454zM143.265 417.174s10.201-11.591 18.944 0c0 0 .729 13.698 6.922 16.507 6.194 2.81 3.279 14.049-5.464 14.401-8.744.351-20.037 1.756-20.402-2.81-.364-4.566 1.457-7.376-1.821-8.781-3.279-1.405 0-9.483 0-9.483l1.821-9.834z" fill="#2F2E41"/><path d="M144.358 249.287s-.364 25.289-2.914 28.801c-2.55 3.512-4.008 5.62-2.55 9.483 1.457 3.864 3.643 10.888 2.55 12.293-1.093 1.405 1.093 8.781 1.093 8.781s28.051 12.995 41.167 40.039c0 0 13.479 21.425 17.487 21.777 4.007.351 8.743-2.459 6.557 5.619s-10.565 18.615-16.758 17.562c-6.193-1.054-10.929-11.24-10.929-11.24s-48.454-47.415-53.554-48.82c-5.1-1.405-19.673-12.644-22.223-19.669-2.55-7.025-8.0147-65.679-5.4646-69.543 2.5506-3.863 12.0226-9.132 12.0226-9.132l33.516 14.049z" fill="#2F2E41"/><path d="M207.384 372.568s22.587.702 22.951 5.971c.365 5.268-9.472 36.527-8.014 43.903 1.457 7.376-11.294 24.235-19.673 20.722-8.379-3.512-1.822-21.776-1.822-21.776s-8.379-24.937-6.922-25.288c1.458-.351 16.03-4.566 15.301-8.781-.728-4.214-1.821-14.751-1.821-14.751z" fill="#2F2E41"/><path d="M126.325 58.7467c12.474 0 22.587-9.7494 22.587-21.776s-10.113-21.7761-22.587-21.7761c-12.475 0-22.587 9.7495-22.587 21.7761s10.112 21.776 22.587 21.776z" fill="#FFB9B9"/><path d="M149.094 70.5128S136.708 83.157 127.6 81.0496c-9.108-2.1073-13.844-17.2101-13.844-17.2101l-16.3938-2.8098s-11.658 49.8743-11.658 54.7913c0 4.917 11.658 57.953 11.658 67.436 0 9.483-9.4721 15.102 5.1008 14.751 14.572-.351 7.65-4.917 28.78-5.268 21.13-.351 24.409 4.214 28.781-3.161 2.981-4.812 6.662-9.189 10.929-12.996l-7.651-25.99-1.093-73.4069s-9.34-17.5613-13.595-16.1564c0 0 2.302 7.727.48 9.4831z" fill="#4872EC"/><path d="M144.607 57.9233s19.424 2.0527 24.889 5.9162c5.464 3.8635 20.765 6.6733 20.401 9.4832-.364 2.8098-17.851 42.8493-17.851 42.8493s-8.015 31.611-1.093 38.987c6.922 7.375 32.788 87.806 28.416 94.48-4.372 6.673-18.215-20.372-18.215-20.372s-18.58-57.952-28.781-67.786c-10.201-9.835-10.929-62.87-10.929-65.3286 0-2.4586 3.163-38.2291 3.163-38.2291zM116.195 61.997s-23.9331-8.6943-32.3123-5.182c-8.3791 3.5123-13.4794 4.2147-13.4794 4.2147l-2.9145 34.4202s-1.0929 49.5231-10.565 61.4651c-9.4721 11.941-15.6654 61.816-14.2082 66.733 1.4573 4.917-2.5501 13.346 3.6432 11.239 6.1933-2.107 23.3159-50.577 23.3159-50.577s0-27.747 10.2006-35.474c10.2007-7.727 26.9587-39.688 27.6877-47.415.729-7.7272 7.65-29.152 7.65-29.152l.982-10.272z" fill="#575A89"/><path d="M198.276 172.72s-10.929 19.668-12.386 23.181c-1.458 3.512-11.658 27.396-26.231 22.127-14.572-5.268 14.208-30.908 14.208-30.908l6.558-21.425s17.123-3.512 17.851 7.025z" fill="#FFB9B9"/><path d="M74.0463 61.0297h-3.6431s-3.6432-2.8098-8.0149-1.0537c-4.3717 1.7562-14.5724-.7024-14.5724.3513s-11.2935-3.1611-16.0296-1.0537c-4.736 2.1074-21.85858 2.8098-21.85858 2.8098S3.00585 78.9423 7.74187 82.1033c4.73603 3.1611 11.65793.7025 14.93673 3.1611 3.2788 2.4586 9.472-.3513 11.6579 2.8098 2.1858 3.161 10.2007 8.7807 12.0222 5.2684 1.8216-3.5123-1.8216-6.6733 5.829-2.8098 7.6505 3.8634 19.6727 3.8635 19.6727 3.8635l2.1859-33.3666z" fill="#575A89"/><path d="M128.361 20.8816c-3.056-.6809-6.229.0736-9.325.5627-3.096.4891-6.508.6504-9.126-1.0149-1.934-1.2298-3.123-3.2643-4.24-5.2214-.466-.6989-.776-1.4834-.912-2.3038-.131-1.4474.824-2.7679 1.838-3.84266 4.711-4.99205 11.594-7.72432 18.536-8.592231 5.707-.713424 11.656-.23566 16.926 1.992651 5.27 2.2283 9.8 6.30895 11.872 11.48454.954 2.6489 1.55 5.4054 1.773 8.2013.313 2.0571.353 4.1442.119 6.2111-.279 1.5322-.696 3.0379-1.248 4.4998l-3.432 9.9909c-.247.9441-.708 1.8237-1.35 2.5754-.329.3681-.774.6233-1.267.7274-.493.1041-1.007.0515-1.467-.15.275-1.0851.317-2.213.123-3.3143-.107-.5489-.382-1.0542-.79-1.4508-.408-.3966-.93-.6664-1.498-.7745-1.265-.1295-2.346.8159-3.546 1.2231-.577.1649-1.184.2129-1.781.1409-.597-.072-1.173-.2624-1.69-.5592-.517-.2969-.965-.6937-1.315-1.1656-.351-.4719-.596-1.0086-.721-1.5764-.189-1.1422.129-2.365-.32-3.4376-.527-1.2567-1.922-1.9152-2.97-2.8183-.956-.8509-1.641-1.9474-1.973-3.1606-.332-1.2132-.299-2.4926.098-3.6878.28-.8315 1.073-1.2094.914-2.1646-.208-1.2531-2.124-2.1293-3.228-2.3751z" fill="#2F2E41"/><path d="M32.875 230.742H.375061v1.27H32.875v-1.27zM32.875 234.553H.375061v1.27H32.875v-1.27zM32.875 238.363H.375061v1.271H32.875v-1.271z" fill="#3F3D56"/><path d="M13.6923 62.0632c6.6428.2785 11.5786 6.0862 10.86 12.459-.651 5.7735-3.0525 12.9577-10.6172 15.7172C.455643 95.1566 1.18426 67.4097 3.73443 66.356c1.70015-.7025 4.37177-4.5269 9.95787-4.2928z" fill="#FFB9B9"/><path d="M185.89 71.4463l4.007 1.8764s8.743 17.2101 9.108 19.6687c.364 2.4586 6.193 11.5906 4.007 14.0486-2.186 2.459-5.465 8.781-3.279 11.24 2.186 2.458 7.287 12.293 7.287 15.805 0 3.512-5.465 12.995-1.822 14.049 3.643 1.054 2.55 14.752 1.822 15.805-.729 1.054-10.201 18.264-10.201 18.264s-1.822-19.669-19.673-11.59c0 0-1.457-9.835 0-10.537 1.457-.703 5.101-4.917 2.186-5.62-2.914-.702-6.922-9.132-6.193-10.185.728-1.054 2.55-2.459.728-3.513-1.821-1.053-3.278-7.024-2.914-8.078.364-1.054-4.007-5.971-4.007-5.971l18.944-55.2627z" fill="#575A89"/></svg>