<svg width="118" height="114" viewBox="0 0 118 114" fill="none" xmlns="http://www.w3.org/2000/svg"><path d="M100.292 97.2993c8.217-7.9212 13.812-18.0135 16.079-29.0006 2.267-10.9871 1.103-22.3756-3.343-32.7252-4.447-10.3496-11.977-19.1956-21.6383-25.4193C81.7283 3.93051 70.3696.60862 58.7499.608612V57.2487l41.5421 40.0506z" fill="#3F3D56"/><path d="M58.7499.608612C45.6918.610112 33.0062 4.80525 22.6964 12.5315 12.3867 20.2578 5.04038 31.075 1.81755 43.2748-1.40528 55.4745-.320937 68.3617 4.89933 79.9012 10.1196 91.4407 19.1783 100.975 30.6449 106.998l28.105-49.7493V.608612z" fill="#4872EC"/><path d="M100.292 97.2993L58.75 57.2487 30.645 106.998c11.1406 5.844 23.9429 8.057 36.4955 6.309 12.5525-1.748 24.1819-7.364 33.1515-16.0077z" fill="#575A89"/></svg>