<svg width="784" height="490" viewBox="0 0 784 490" fill="none" xmlns="http://www.w3.org/2000/svg">
<g id="Frame 2" clip-path="url(#clip0)">
<rect width="784" height="490" fill="white"/>
<path id="Vector" d="M392 490C608.496 490 784 479.039 784 465.517C784 451.995 608.496 441.034 392 441.034C175.504 441.034 0 451.995 0 465.517C0 479.039 175.504 490 392 490Z" fill="#F2F2F2"/>
<path id="Vector_2" d="M713.742 0H124.846V20.3455H713.742V0Z" fill="#F2F2F2"/>
<path id="Vector_3" d="M140.605 15.1384C143.283 15.1384 145.453 12.781 145.453 9.87289C145.453 6.96481 143.283 4.60735 140.605 4.60735C137.927 4.60735 135.756 6.96481 135.756 9.87289C135.756 12.781 137.927 15.1384 140.605 15.1384Z" fill="#4872EC"/>
<path id="Vector_4" d="M156.363 15.1384C159.041 15.1384 161.212 12.781 161.212 9.87289C161.212 6.96481 159.041 4.60735 156.363 4.60735C153.685 4.60735 151.514 6.96481 151.514 9.87289C151.514 12.781 153.685 15.1384 156.363 15.1384Z" fill="#4872EC"/>
<path id="Vector_5" d="M172.122 15.1384C174.8 15.1384 176.971 12.781 176.971 9.87289C176.971 6.96481 174.8 4.60735 172.122 4.60735C169.444 4.60735 167.273 6.96481 167.273 9.87289C167.273 12.781 169.444 15.1384 172.122 15.1384Z" fill="#4872EC"/>
<path id="Vector_6" d="M125.263 321.783L124.846 322.171V459.418H713.741V218.34L706.723 218.918L125.263 321.783Z" fill="#575A89"/>
<g id="para1">
<path id="Vector_7" d="M331.795 136.097H167.345V143.298H331.795V136.097Z" fill="#3F3D56"/>
<path id="Vector_8" d="M331.795 151.939H167.345V159.14H331.795V151.939Z" fill="#3F3D56"/>
<path id="Vector_9" d="M223.046 167.781H167.345V174.982H223.046V167.781Z" fill="#3F3D56"/>
</g>
<g id="para2">
<path id="Vector_10" d="M667.158 336.012H502.708V343.213H667.158V336.012Z" fill="white"/>
<path id="Vector_11" d="M667.158 351.854H502.708V359.055H667.158V351.854Z" fill="white"/>
<path id="Vector_12" d="M558.409 367.696H502.708V374.897H558.409V367.696Z" fill="white"/>
</g>
<path id="linex1" d="M277.275 218.522H221.574V232.322H277.275V218.522Z" fill="#3F3D56"/>
<path id="linex2" d="M608.356 405.264H552.656V419.064H608.356V405.264Z" fill="white"/>
<g id="line1">
<path id="Vector_13" opacity="0.3" d="M249.738 267.338C271.018 267.338 288.269 248.605 288.269 225.496C288.269 202.387 271.018 183.653 249.738 183.653C228.458 183.653 211.207 202.387 211.207 225.496C211.207 248.605 228.458 267.338 249.738 267.338Z" fill="#6C63FF"/>
<path id="Vector_14" opacity="0.3" d="M249.738 253.391C263.925 253.391 275.426 240.902 275.426 225.496C275.426 210.09 263.925 197.601 249.738 197.601C235.552 197.601 224.051 210.09 224.051 225.496C224.051 240.902 235.552 253.391 249.738 253.391Z" fill="#6C63FF"/>
<path id="Vector_15" d="M249.738 244.867C259.59 244.867 267.577 236.194 267.577 225.496C267.577 214.797 259.59 206.124 249.738 206.124C239.886 206.124 231.9 214.797 231.9 225.496C231.9 236.194 239.886 244.867 249.738 244.867Z" fill="#4872EC"/>
</g>
<g id="line2">
<path id="Vector_16" opacity="0.3" d="M573.952 163.639C595.232 163.639 612.483 144.906 612.483 121.797C612.483 98.6879 595.232 79.9543 573.952 79.9543C552.672 79.9543 535.421 98.6879 535.421 121.797C535.421 144.906 552.672 163.639 573.952 163.639Z" fill="#6C63FF"/>
<path id="Vector_17" opacity="0.3" d="M573.952 149.692C588.139 149.692 599.64 137.203 599.64 121.797C599.64 106.391 588.139 93.9019 573.952 93.9019C559.765 93.9019 548.265 106.391 548.265 121.797C548.265 137.203 559.765 149.692 573.952 149.692Z" fill="#6C63FF"/>
<path id="Vector_18" d="M573.952 141.168C583.804 141.168 591.791 132.496 591.791 121.797C591.791 111.098 583.804 102.425 573.952 102.425C564.1 102.425 556.114 111.098 556.114 121.797C556.114 132.496 564.1 141.168 573.952 141.168Z" fill="#4872EC"/>
</g>
<g id="line3">
<path id="Vector_19" opacity="0.3" d="M580.82 454.08C602.1 454.08 619.351 435.346 619.351 412.237C619.351 389.128 602.1 370.395 580.82 370.395C559.54 370.395 542.289 389.128 542.289 412.237C542.289 435.346 559.54 454.08 580.82 454.08Z" fill="#6C63FF"/>
<path id="Vector_20" opacity="0.3" d="M580.82 440.132C595.007 440.132 606.507 427.643 606.507 412.237C606.507 396.831 595.007 384.342 580.82 384.342C566.633 384.342 555.133 396.831 555.133 412.237C555.133 427.643 566.633 440.132 580.82 440.132Z" fill="#6C63FF"/>
<path id="Vector_21" d="M580.82 431.609C590.672 431.609 598.658 422.936 598.658 412.237C598.658 401.539 590.672 392.866 580.82 392.866C570.968 392.866 562.982 401.539 562.982 412.237C562.982 422.936 570.968 431.609 580.82 431.609Z" fill="#4872EC"/>
</g>
<g id="guy">
<path id="Vector_22" d="M64.1629 84.7399L80.0217 85.4077L80.8124 63.2654L64.9536 62.5976L64.1629 84.7399Z" fill="#6C63FF"/>
<path id="Vector_23" d="M136.493 140.145C136.493 140.145 158.455 128.75 158.103 138.591C157.752 148.432 135.966 154.906 135.966 154.906L136.493 140.145Z" fill="#FFB9B9"/>
<path id="Vector_24" d="M124.443 223.412C124.443 223.412 134.805 250.952 138.633 270.825C142.461 290.698 148.292 318.047 140.792 337.442C133.293 356.838 111.971 413.843 111.751 419.994C111.532 426.145 113.578 432.391 109.046 432.2C104.515 432.009 79.8579 423.579 78.8569 419.841C77.8559 416.103 87.2695 406.643 87.2695 406.643L110.515 327.544L86.2619 276.011L68.7685 352.889L65.3422 448.839C65.3422 448.839 48.5263 443.203 46.085 448.028C46.085 448.028 38.551 436.623 37.5939 431.655C36.6368 426.687 41.152 332.014 41.152 332.014C41.152 332.014 25.7165 224.182 38.177 224.707C50.6375 225.232 99.4439 192.792 124.443 223.412Z" fill="#2F2E41"/>
<path id="Vector_25" d="M109.222 427.279C109.222 427.279 120.716 454.867 121.805 456.145C122.894 457.422 130.384 470.058 124.72 469.819C119.056 469.581 105.683 462.858 95.8392 452.587C85.9956 442.317 73.0173 424.523 74.194 423.34C75.3707 422.158 83.4319 418.801 83.4319 418.801L109.222 427.279Z" fill="#2F2E41"/>
<path id="Vector_26" d="M63.2962 442.593C63.2962 442.593 63.9897 454.942 66.0796 459.958C68.1694 464.974 67.9059 472.355 62.242 472.116C56.5781 471.877 41.9399 468.797 41.9399 468.797C41.9399 468.797 41.0707 461.369 42.2474 460.186C43.4241 459.004 48.4384 445.663 46.3047 441.877C44.1709 438.092 63.2962 442.593 63.2962 442.593Z" fill="#2F2E41"/>
<path id="Vector_27" d="M54.917 41.8473C54.917 41.8473 42.8425 62.2825 38.1357 67.0122C33.4289 71.7419 46.6708 82.1553 46.6708 82.1553L70.3712 85.6173C70.3712 85.6173 70.073 62.1972 71.2936 59.7846C72.5143 57.3721 54.917 41.8473 54.917 41.8473Z" fill="#FFB9B9"/>
<path id="Vector_28" d="M75.5172 68.5863C75.5172 68.5863 70.6347 78.2366 66.1036 78.0458C61.5725 77.8549 38.1357 67.0122 37.1347 63.2741C36.1337 59.536 29.3717 90.0507 29.3717 90.0507L86.7198 199.648L100.708 189.149L93.9305 124.801L88.3638 90.0709L75.5172 68.5863Z" fill="#4872EC"/>
<path id="Vector_29" d="M35.0195 166.671C37.3071 171.868 38.7358 177.287 38.5377 182.835C38.5289 183.081 38.5201 183.327 38.5 183.573C37.9573 194.958 34.0951 208.125 32.7094 217.701C31.704 224.57 31.9901 229.584 35.6918 230.762C44.6661 233.604 34.3833 235.635 69.1039 248.185C103.825 260.735 109.884 249.902 109.972 247.442C110.059 244.982 105.055 226.291 106.231 225.109C107.408 223.927 122.696 240.586 127.315 238.317C131.934 236.047 127.842 223.555 127.842 223.555C127.842 223.555 117.436 197.245 117.656 191.095C117.876 184.944 101.894 155.936 101.894 155.936L91.0246 79.0952C91.0246 79.0952 86.845 69.0634 81.225 67.5947C75.6051 66.1261 70.9422 69.6256 70.9422 69.6256L80.3465 92.1973L90.2686 132.038L88.6087 146.752C88.6087 146.752 77.0707 120.395 69.4927 110.22C61.9147 100.045 45.7577 75.957 45.7577 75.957C45.7577 75.957 41.9856 62.1355 44.8332 58.0051C47.6811 53.8624 32.9551 53.2423 26.6763 70.2255C23.3484 79.2267 17.9455 92.6495 14.5609 105.147C11.5449 116.219 10.1203 126.569 13.1083 132.485C17.6751 141.523 29.1629 153.403 35.0195 166.671Z" fill="#575A89"/>
<path id="Vector_30" opacity="0.1" d="M13.1082 132.485C17.6751 141.523 29.1629 153.402 35.0195 166.671C36.5491 160.687 38.4152 154.494 38.4152 154.494C38.4152 154.494 45.5726 112.909 24.4014 102.161C20.8934 101.793 17.385 102.857 14.5609 105.147C11.5449 116.219 10.1202 126.569 13.1082 132.485Z" fill="black"/>
<path id="Vector_31" d="M97.1531 129.864L115.102 135.548L140.023 136.598L142.587 160.113L101.631 163.316C101.631 163.316 91.4014 132.086 97.1531 129.864Z" fill="#575A89"/>
<path id="Vector_32" d="M67.8853 208.931C67.8853 208.931 91.897 213.257 86.4166 221.104C80.9362 228.951 59.6647 220.701 59.6647 220.701L67.8853 208.931Z" fill="#FFB9B9"/>
<path id="Vector_33" opacity="0.1" d="M38.5 183.573C37.9573 194.958 34.0951 208.125 32.7094 217.701C40.3587 225.563 47.6326 232.497 50.3739 232.613C56.0378 232.851 65.1439 232.003 68.4983 233.376C71.8527 234.749 73.8201 211.424 73.8201 211.424C73.8201 211.424 71.8181 203.948 62.8877 199.876C56.8598 197.121 45.3054 189.649 38.5 183.573Z" fill="black"/>
<path id="Vector_34" d="M24.6649 94.7804C24.6649 94.7804 5.49563 91.5092 6.53122 126.048C7.56681 160.587 4.51059 182.634 12.2204 189.119C19.9301 195.603 44.9736 224.993 50.6375 225.232C56.3013 225.47 65.4075 224.622 68.7619 225.995C72.1162 227.368 74.0836 204.044 74.0836 204.044C74.0836 204.044 72.0816 196.567 63.1512 192.495C54.2208 188.423 33.1813 173.986 33.357 169.065C33.5327 164.145 38.6788 147.114 38.6788 147.114C38.6788 147.114 45.8362 105.528 24.6649 94.7804Z" fill="#575A89"/>
<path id="Vector_35" d="M71.8208 72.1063C85.5946 72.1063 96.7605 59.9807 96.7605 45.0231C96.7605 30.0655 85.5946 17.9399 71.8208 17.9399C58.0469 17.9399 46.881 30.0655 46.881 45.0231C46.881 59.9807 58.0469 72.1063 71.8208 72.1063Z" fill="#FFB9B9"/>
<path id="Vector_36" d="M88.6133 6.20505C89.2149 6.76788 89.9352 7.16044 90.7103 7.3478C91.0994 7.42312 91.5001 7.32823 91.825 7.08384C92.1499 6.83945 92.3726 6.4654 92.4444 6.04335C93.015 7.32839 93.6588 8.69799 94.8238 9.35736C95.9888 10.0167 97.7902 9.46383 97.9581 8.0489C98.1282 9.12322 98.5659 10.1265 99.2237 10.9499C99.9465 11.6983 101.257 11.8872 101.888 11.0466C101.378 14.0744 101.693 17.1881 101.533 20.2612C101.373 23.3343 100.618 26.5922 98.4799 28.613C95.3619 31.56 90.6731 30.8327 86.5715 30.2743C85.9512 30.133 85.3077 30.1712 84.7053 30.3852C83.1695 31.0957 83.2392 33.4173 83.2185 35.23C83.0932 38.4105 81.9341 41.4398 79.9469 43.7801C77.9597 46.1204 75.273 47.6203 72.364 48.0133C70.736 48.2861 69.0749 47.8459 67.7457 46.7893C66.5811 45.7173 65.9863 43.9702 64.6519 43.165C62.4812 41.8552 59.8487 43.7654 58.2617 45.8395C56.6747 47.9136 55.1105 50.4649 52.652 50.8446C49.4005 51.3467 46.924 47.7483 45.709 44.4348C44.0326 39.7908 43.2295 34.8292 43.347 29.8428C43.4644 24.8563 44.5 19.9458 46.3928 15.4009C53.1821 -0.670574 76.3744 -3.2126 88.6133 6.20505Z" fill="#2F2E41"/>
</g>
<path id="white-leaf" d="M687.296 436.844C696.079 453.11 713.794 459.55 713.794 459.55C713.794 459.55 717.268 439.617 708.485 423.351C699.701 407.085 681.986 400.645 681.986 400.645C681.986 400.645 678.512 420.578 687.296 436.844Z" fill="#F2F2F2"/>
<path id="blue-leaf" d="M692.777 431.166C707.967 440.303 714.33 459.376 714.33 459.376C714.33 459.376 696.066 463.637 680.876 454.501C665.686 445.365 659.322 426.291 659.322 426.291C659.322 426.291 677.587 422.03 692.777 431.166Z" fill="#4872EC"/>
</g>
<defs>
<clipPath id="clip0">
<rect width="784" height="490" fill="white"/>
</clipPath>
</defs>
</svg>
