<svg width="758" height="568" viewBox="0 0 758 568" fill="none" xmlns="http://www.w3.org/2000/svg">
<g id="Frame 1" clip-path="url(#clip0)">
<rect width="758" height="568" fill="white"/>
<path id="Vector 1" d="M2 162.5L257.665 75L535.873 -1L758 205.5L744.255 572L350.585 651L103.716 592L2 162.5Z" fill="url(#paint0_linear)"/>
<path id="Vector" d="M638.737 534C688.588 534 729 528.944 729 522.707C729 516.47 688.588 511.414 638.737 511.414C588.886 511.414 548.474 516.47 548.474 522.707C548.474 528.944 588.886 534 638.737 534Z" fill="#3F3D56"/>
<path id="Vector_2" d="M301.5 50.5703H29V214.465H301.5V50.5703Z" fill="#F2F2F2"/>
<path id="Vector_3" d="M318.688 34.6026H46.1875V198.497H318.688V34.6026Z" stroke="#3F3D56" stroke-width="2" stroke-miterlimit="10"/>
<g id="pie-chart">
<path id="Vector_4" d="M224.292 156.299C232.509 148.378 238.104 138.286 240.371 127.299C242.638 116.312 241.474 104.923 237.028 94.5735C232.581 84.2239 225.051 75.3779 215.39 69.1542C205.728 62.9305 194.37 59.6086 182.75 59.6086V116.249L224.292 156.299Z" fill="#3F3D56"/>
<path id="Vector_5" d="M182.75 59.6086C169.692 59.6101 157.006 63.8053 146.696 71.5315C136.387 79.2578 129.04 90.075 125.818 102.275C122.595 114.475 123.679 127.362 128.899 138.901C134.12 150.441 143.178 159.975 154.645 165.998L182.75 116.249V59.6086Z" fill="#4872EC"/>
<path id="Vector_6" d="M224.292 156.299L182.75 116.249L154.645 165.998C165.786 171.842 178.588 174.055 191.14 172.307C203.693 170.559 215.322 164.943 224.292 156.299Z" fill="#575A89"/>
</g>
<path id="Vector_7" d="M269.625 278.938H114.625V442.833H269.625V278.938Z" fill="#F2F2F2"/>
<path id="Vector_8" d="M285.25 263.272H130.25V427.167H285.25V263.272Z" stroke="#3F3D56" stroke-width="2" stroke-miterlimit="10"/>
<g id="donut-chart">
<path id="Vector_9" d="M207.75 292.195V305.451C215.908 305.451 223.884 307.783 230.667 312.153C237.451 316.523 242.738 322.734 245.86 330.001C248.982 337.267 249.799 345.263 248.207 352.978C246.616 360.692 242.687 367.778 236.918 373.34L246.641 382.714C254.333 375.298 259.571 365.85 261.693 355.564C263.815 345.278 262.726 334.617 258.563 324.928C254.4 315.239 247.351 306.957 238.306 301.131C229.262 295.304 218.628 292.195 207.75 292.195V292.195Z" fill="#3F3D56"/>
<path id="Vector_10" d="M246.641 382.714L236.918 373.34C229.866 380.141 220.496 384.246 210.544 384.897C200.592 385.547 190.733 382.698 182.793 376.878L174.471 387.435C185.059 395.194 198.205 398.991 211.474 398.122C224.743 397.254 237.237 391.78 246.641 382.714Z" fill="#575A89"/>
<path id="Vector_11" d="M166.5 345.219C166.5 334.672 170.846 324.557 178.582 317.099C186.318 309.641 196.81 305.451 207.75 305.451V292.195C196.236 292.194 185.013 295.678 175.662 302.154C166.311 308.63 159.304 317.772 155.628 328.291C151.952 338.81 151.794 350.176 155.174 360.787C158.555 371.398 165.304 380.719 174.471 387.435L182.793 376.878C177.726 373.172 173.618 368.386 170.791 362.893C167.964 357.4 166.495 351.351 166.5 345.219V345.219Z" fill="#4872EC"/>
</g>
<path id="Vector_12" d="M500.875 176.504H345.875V340.399H500.875V176.504Z" fill="#F2F2F2"/>
<path id="Vector_13" d="M516.5 160.838H361.5V324.732H516.5V160.838Z" stroke="#3F3D56" stroke-width="2" stroke-miterlimit="10"/>
<g id="chart-lines">
<path id="Vector_14" d="M297.125 166.863H250.875V168.671H297.125V166.863Z" fill="#3F3D56"/>
<path id="Vector_15" d="M297.125 172.286H250.875V174.094H297.125V172.286Z" fill="#3F3D56"/>
<path id="Vector_16" d="M297.125 177.709H250.875V179.517H297.125V177.709Z" fill="#3F3D56"/>
<path id="Vector_17" d="M264.625 412.176H232.125V413.446H264.625V412.176Z" fill="#3F3D56"/>
<path id="Vector_18" d="M264.625 415.987H232.125V417.257H264.625V415.987Z" fill="#3F3D56"/>
<path id="Vector_19" d="M264.625 419.798H232.125V421.068H264.625V419.798Z" fill="#3F3D56"/>
<path id="Vector_20" d="M376.5 171.081V296.412H502.125" stroke="#3F3D56" stroke-width="2" stroke-miterlimit="10"/>
</g>
<g id="bar-chart">
<path id="Vector_21" d="M411.5 252.426H383.375V295.81H411.5V252.426Z" fill="#575A89"/>
<path id="Vector_22" d="M452.125 222.901H424V295.81H452.125V222.901Z" fill="#3F3D56"/>
<path id="Vector_23" d="M492.75 188.555H464.625V295.81H492.75V188.555Z" fill="#4872EC"/>
</g>
<g id="my-man">
<path id="Vector_24" d="M611.265 118.956C611.265 118.956 608.715 137.22 615.273 139.327C621.83 141.435 620.009 157.591 620.009 157.591L600.336 171.991L582.849 173.396L578.477 151.62L581.028 146.001C581.028 146.001 590.864 134.761 583.942 123.171C577.02 111.58 611.265 118.956 611.265 118.956Z" fill="#FFB9B9"/>
<path id="Vector_25" opacity="0.1" d="M611.265 118.956C611.265 118.956 608.715 137.22 615.273 139.327C621.83 141.435 620.009 157.591 620.009 157.591L600.336 171.991L582.849 173.396L578.477 151.62L581.028 146.001C581.028 146.001 590.864 134.761 583.942 123.171C577.02 111.58 611.265 118.956 611.265 118.956Z" fill="black"/>
<path id="Vector_26" d="M593.05 261.203L570.098 313.184C570.098 313.184 552.247 303.35 541.682 304.404C531.117 305.457 518.002 293.165 518.002 293.165L531.117 232.051L555.526 167.074L589.407 187.797L593.05 261.203Z" fill="#575A89"/>
<path id="Vector_27" opacity="0.1" d="M593.05 261.203L570.098 313.184C570.098 313.184 552.247 303.35 541.682 304.404C531.117 305.457 518.002 293.165 518.002 293.165L531.117 232.051L555.526 167.074L589.407 187.797L593.05 261.203Z" fill="black"/>
<path id="Vector_28" d="M629.116 482.125V498.983H612.723L615.273 479.315L629.116 482.125Z" fill="#575A89"/>
<path id="Vector_29" d="M671.741 452.973L683.763 459.998L675.019 479.315L665.912 478.261L657.168 466.32L671.741 452.973Z" fill="#575A89"/>
<path id="Vector_30" d="M632.395 256.286L653.89 305.106C653.89 305.106 646.239 359.195 646.603 363.761C646.968 368.327 647.332 370.083 645.511 373.947C643.689 377.81 642.96 380.269 644.053 384.835C645.146 389.401 645.51 391.157 644.782 392.913C644.053 394.669 638.953 467.022 636.403 471.939C633.853 476.856 637.86 484.934 635.31 485.637C632.76 486.339 613.815 484.583 612.723 480.369C611.63 476.154 616.366 465.968 613.816 462.807C611.265 459.646 614.18 345.849 610.537 338.122C606.894 330.395 566.819 323.37 566.819 323.37C566.819 323.37 563.176 300.892 565.362 297.379C567.548 293.867 570.463 271.74 570.463 271.74L632.395 256.286Z" fill="#2F2E41"/>
<path id="Vector_31" d="M611.265 496.174C611.265 496.174 621.466 484.583 630.209 496.174C630.209 496.174 630.938 509.872 637.131 512.681C643.325 515.491 640.41 526.73 631.667 527.082C622.923 527.433 611.63 528.838 611.265 524.272C610.901 519.706 612.722 516.896 609.444 515.491C606.165 514.086 609.444 506.008 609.444 506.008L611.265 496.174Z" fill="#2F2E41"/>
<path id="Vector_32" d="M612.358 328.287C612.358 328.287 611.994 353.576 609.444 357.088C606.894 360.6 605.436 362.708 606.894 366.571C608.351 370.435 610.537 377.459 609.444 378.864C608.351 380.269 610.537 387.645 610.537 387.645C610.537 387.645 638.588 400.64 651.704 427.684C651.704 427.684 665.183 449.109 669.191 449.461C673.198 449.812 677.934 447.002 675.748 455.08C673.562 463.158 665.183 473.695 658.99 472.642C652.797 471.588 648.061 461.402 648.061 461.402C648.061 461.402 599.607 413.987 594.507 412.582C589.407 411.177 574.834 399.938 572.284 392.913C569.734 385.888 564.269 327.234 566.819 323.37C569.37 319.507 578.842 314.238 578.842 314.238L612.358 328.287Z" fill="#2F2E41"/>
<path id="Vector_33" d="M675.384 451.568C675.384 451.568 697.971 452.27 698.335 457.539C698.7 462.807 688.863 494.066 690.321 501.442C691.778 508.818 679.027 525.677 670.648 522.164C662.269 518.652 668.826 500.388 668.826 500.388C668.826 500.388 660.447 475.451 661.904 475.1C663.362 474.749 677.934 470.534 677.205 466.319C676.477 462.105 675.384 451.568 675.384 451.568Z" fill="#2F2E41"/>
<path id="Vector_34" d="M594.325 137.747C606.799 137.747 616.912 127.997 616.912 115.971C616.912 103.944 606.799 94.1946 594.325 94.1946C581.85 94.1946 571.738 103.944 571.738 115.971C571.738 127.997 581.85 137.747 594.325 137.747Z" fill="#FFB9B9"/>
<path id="Vector_35" d="M617.094 149.513C617.094 149.513 604.708 162.157 595.6 160.05C586.492 157.942 581.756 142.84 581.756 142.84L565.362 140.03C565.362 140.03 553.704 189.904 553.704 194.821C553.704 199.738 565.362 252.774 565.362 262.257C565.362 271.74 555.89 277.359 570.463 277.008C585.035 276.657 578.113 272.091 599.243 271.74C620.373 271.389 623.652 275.954 628.024 268.579C631.005 263.767 634.686 259.39 638.953 255.583L631.302 229.593L630.209 156.186C630.209 156.186 620.869 138.625 616.614 140.03C616.614 140.03 618.916 147.757 617.094 149.513Z" fill="#4872EC"/>
<path id="Vector_36" d="M612.607 136.923C612.607 136.923 632.031 138.976 637.496 142.84C642.96 146.703 658.261 149.513 657.897 152.323C657.533 155.132 640.046 195.172 640.046 195.172C640.046 195.172 632.031 226.783 638.953 234.159C645.875 241.534 671.741 321.965 667.369 328.639C662.997 335.312 649.154 308.267 649.154 308.267C649.154 308.267 630.574 250.315 620.373 240.481C610.172 230.646 609.444 177.611 609.444 175.152C609.444 172.694 612.607 136.923 612.607 136.923Z" fill="#575A89"/>
<path id="Vector_37" d="M584.195 140.997C584.195 140.997 560.262 132.303 551.883 135.815C543.504 139.327 538.403 140.03 538.403 140.03L535.489 174.45C535.489 174.45 534.396 223.973 524.924 235.915C515.452 247.856 509.258 297.731 510.716 302.648C512.173 307.565 508.165 315.994 514.359 313.887C520.552 311.78 537.675 263.31 537.675 263.31C537.675 263.31 537.675 235.563 547.875 227.836C558.076 220.109 574.834 188.148 575.563 180.421C576.292 172.694 583.213 151.269 583.213 151.269L584.195 140.997Z" fill="#575A89"/>
<path id="Vector_38" d="M666.276 251.72C666.276 251.72 655.347 271.388 653.89 274.901C652.432 278.413 642.232 302.297 627.659 297.028C613.087 291.76 641.867 266.12 641.867 266.12L648.425 244.695C648.425 244.695 665.548 241.183 666.276 251.72Z" fill="#FFB9B9"/>
<path id="Vector_39" d="M542.046 140.03H538.403C538.403 140.03 534.76 137.22 530.388 138.976C526.017 140.732 515.816 138.274 515.816 139.327C515.816 140.381 504.522 136.166 499.786 138.274C495.05 140.381 477.928 141.083 477.928 141.083C477.928 141.083 471.006 157.942 475.742 161.103C480.478 164.264 487.4 161.806 490.679 164.264C493.957 166.723 500.151 163.913 502.336 167.074C504.522 170.235 512.537 175.855 514.359 172.343C516.18 168.83 512.537 165.669 520.188 169.533C527.838 173.396 539.86 173.396 539.86 173.396L542.046 140.03Z" fill="#575A89"/>
<path id="Vector_40" d="M596.361 99.8816C593.305 99.2007 590.132 99.9552 587.036 100.444C583.94 100.933 580.528 101.095 577.91 99.4294C575.976 98.1996 574.787 96.1651 573.67 94.208C573.204 93.5091 572.894 92.7246 572.758 91.9042C572.627 90.4568 573.582 89.1363 574.596 88.0615C579.307 83.0695 586.19 80.3372 593.132 79.4693C598.839 78.7559 604.788 79.2336 610.058 81.462C615.328 83.6903 619.858 87.7709 621.93 92.9465C622.884 95.5954 623.48 98.3519 623.703 101.148C624.016 103.205 624.056 105.292 623.822 107.359C623.543 108.891 623.126 110.397 622.574 111.859L619.142 121.85C618.895 122.794 618.434 123.673 617.792 124.425C617.463 124.793 617.018 125.048 616.525 125.152C616.032 125.257 615.518 125.204 615.058 125.002C615.333 123.917 615.375 122.789 615.181 121.688C615.074 121.139 614.799 120.634 614.391 120.237C613.983 119.841 613.461 119.571 612.893 119.463C611.628 119.333 610.547 120.279 609.347 120.686C608.77 120.851 608.163 120.899 607.566 120.827C606.969 120.755 606.393 120.564 605.876 120.268C605.359 119.971 604.911 119.574 604.561 119.102C604.21 118.63 603.965 118.093 603.84 117.526C603.651 116.383 603.969 115.161 603.52 114.088C602.993 112.831 601.598 112.173 600.55 111.27C599.594 110.419 598.909 109.322 598.577 108.109C598.245 106.896 598.278 105.617 598.675 104.421C598.955 103.59 599.748 103.212 599.589 102.257C599.381 101.004 597.465 100.127 596.361 99.8816Z" fill="#2F2E41"/>
<path id="Vector_41" d="M500.875 309.742H468.375V311.012H500.875V309.742Z" fill="#3F3D56"/>
<path id="Vector_42" d="M500.875 313.553H468.375V314.823H500.875V313.553Z" fill="#3F3D56"/>
<path id="Vector_43" d="M500.875 317.363H468.375V318.634H500.875V317.363Z" fill="#3F3D56"/>
<path id="Vector_44" d="M481.692 141.063C488.335 141.342 493.271 147.149 492.552 153.522C491.901 159.296 489.5 166.48 481.935 169.239C468.456 174.157 469.184 146.41 471.734 145.356C473.435 144.654 476.106 140.829 481.692 141.063Z" fill="#FFB9B9"/>
<path id="Vector_45" d="M653.89 150.446L657.897 152.323C657.897 152.323 666.64 169.533 667.005 171.991C667.369 174.45 673.198 183.582 671.012 186.04C668.826 188.499 665.547 194.821 667.733 197.28C669.919 199.738 675.02 209.573 675.02 213.085C675.02 216.597 669.555 226.08 673.198 227.134C676.841 228.188 675.748 241.886 675.02 242.939C674.291 243.993 664.819 261.203 664.819 261.203C664.819 261.203 662.997 241.534 645.146 249.613C645.146 249.613 643.689 239.778 645.146 239.076C646.603 238.373 650.247 234.159 647.332 233.456C644.418 232.754 640.41 224.324 641.139 223.271C641.867 222.217 643.689 220.812 641.867 219.758C640.046 218.705 638.589 212.734 638.953 211.68C639.317 210.626 634.946 205.709 634.946 205.709L653.89 150.446Z" fill="#575A89"/>
</g>
<g id="chart-legends">
<path id="Vector_46" d="M146.732 408.677H138.375V416.734H146.732V408.677Z" fill="#4872EC"/>
<path id="Vector_47" d="M158.804 408.677H150.446V416.734H158.804V408.677Z" fill="#3F3D56"/>
<path id="Vector_48" d="M170.875 408.677H162.518V416.734H170.875V408.677Z" fill="#575A89"/>
<path id="Vector_49" d="M67.75 164.453H56.5V175.299H67.75V164.453Z" fill="#4872EC"/>
<path id="Vector_50" d="M84 164.453H72.75V175.299H84V164.453Z" fill="#3F3D56"/>
<path id="Vector_51" d="M100.25 164.453H89V175.902H100.25V164.453Z" fill="#575A89"/>
<path id="Vector_52" d="M382.982 306.243H374.625V314.3H382.982V306.243Z" fill="#4872EC"/>
<path id="Vector_53" d="M395.054 306.243H386.696V314.3H395.054V306.243Z" fill="#3F3D56"/>
<path id="Vector_54" d="M407.125 306.243H398.768V314.3H407.125V306.243Z" fill="#575A89"/>
</g>
</g>
<defs>
<linearGradient id="paint0_linear" x1="623.844" y1="79.5" x2="152.134" y2="623.818" gradientUnits="userSpaceOnUse">
<stop stop-color="#4872EC" stop-opacity="0"/>
<stop offset="1" stop-color="#5B7FFF"/>
</linearGradient>
<clipPath id="clip0">
<rect width="758" height="568" fill="white"/>
</clipPath>
</defs>
</svg>
