<svg width="176" height="177" viewBox="0 0 176 177" fill="none" xmlns="http://www.w3.org/2000/svg"><path d="M88 .5v22c13.054 0 25.814 3.8708 36.668 11.123 10.853 7.2522 19.313 17.5599 24.308 29.6199 4.995 12.0599 6.302 25.3303 3.756 38.1331-2.547 12.803-8.833 24.563-18.063 33.793l15.556 15.556c12.307-12.307 20.689-27.987 24.084-45.057 3.396-17.0704 1.653-34.7642-5.008-50.8441-6.66-16.0799-17.939-29.8237-32.411-39.4932C122.419 5.66109 105.405.499999 88 .5z" fill="#3F3D56"/><path d="M150.225 150.725l-15.556-15.556c-11.284 11.286-26.276 18.1-42.1986 19.18-15.9228 1.079-31.6973-3.649-44.4013-13.308l-13.3158 17.52c16.9415 12.877 37.975 19.178 59.2056 17.737 21.2301-1.441 41.2201-10.526 56.2661-25.573z" fill="#575A89"/><path d="M22 88.5c0-17.5043 6.9536-34.2916 19.331-46.669C53.7084 29.4536 70.4957 22.5 88 22.5V.5C69.5782.499821 51.6209 6.28093 36.6591 17.0285 21.6974 27.776 10.4859 42.948 4.60481 60.4058c-5.88108 17.4578-6.13507 36.3211-.72621 53.9312 5.40886 17.61 16.2078 33.078 30.8747 44.224l13.3158-17.52c-8.1077-6.15-14.6807-14.094-19.2036-23.21C24.3425 108.716 21.9926 98.6761 22 88.5z" fill="#4872EC"/></svg>