<svg width="368" height="746" viewBox="0 0 368 746" fill="none" xmlns="http://www.w3.org/2000/svg"><path d="M228.624 66.9933s-4.08 30.3106 6.412 33.8077c10.492 3.498 7.578 30.311 7.578 30.311l-31.476 23.899-27.979 2.331-6.995-36.139 4.08-9.327s15.738-18.6523 4.663-37.8879 43.717-6.9948 43.717-6.9948z" fill="#FFB9B9"/><path opacity=".1" d="M228.624 66.9933s-4.08 30.3106 6.412 33.8077c10.492 3.498 7.578 30.311 7.578 30.311l-31.476 23.899-27.979 2.331-6.995-36.139 4.08-9.327s15.738-18.6523 4.663-37.8879 43.717-6.9948 43.717-6.9948z" fill="#000"/><path d="M199.48 303.066l-36.723 86.269s-28.562-16.321-45.466-14.572c-16.904 1.748-37.888-18.653-37.888-18.653l20.984-101.424 39.054-107.836 54.21 34.391 5.829 121.825z" fill="#575A89"/><path opacity=".1" d="M199.48 303.066l-36.723 86.269s-28.562-16.321-45.466-14.572c-16.904 1.748-37.888-18.653-37.888-18.653l20.984-101.424 39.054-107.836 54.21 34.391 5.829 121.825z" fill="#000"/><path d="M257.186 669.708v27.979h-26.23l4.08-32.642 22.15 4.663zM325.385 621.328l19.236 11.658-13.99 32.059-14.572-1.749-13.99-19.818 23.316-22.15z" fill="#575A89"/><path d="M262.432 294.906l34.391 81.022s-12.241 89.766-11.658 97.344c.583 7.578 1.166 10.492-1.748 16.904-2.915 6.412-4.081 10.492-2.332 18.07 1.749 7.578 2.332 10.492 1.166 13.407-1.166 2.914-9.326 122.991-13.407 131.151-4.08 8.161 2.332 21.567-1.748 22.733-4.081 1.166-34.391-1.748-36.14-8.743-1.749-6.995 5.829-23.899 1.749-29.145-4.081-5.246.583-194.105-5.246-206.928-5.829-12.824-69.948-24.482-69.948-24.482s-5.829-37.305-2.332-43.134c3.498-5.829 8.161-42.552 8.161-42.552l99.092-25.647zM228.624 693.024s16.322-19.236 30.311 0c0 0 1.166 22.733 11.075 27.396 9.909 4.663 5.246 23.316-8.743 23.899-13.99.583-32.06 2.914-32.643-4.663-.583-7.578 2.332-12.241-2.914-14.573-5.246-2.331 0-15.738 0-15.738l2.914-16.321z" fill="#2F2E41"/><path d="M230.373 414.4s-.583 41.968-4.663 47.797c-4.08 5.829-6.412 9.326-4.08 15.738 2.331 6.412 5.829 18.07 4.08 20.402-1.749 2.331 1.749 14.572 1.749 14.572s44.883 21.567 65.867 66.45c0 0 21.567 35.557 27.979 36.14 6.412.583 13.989-4.08 10.492 9.326-3.497 13.407-16.904 30.894-26.813 29.145-9.909-1.749-17.487-18.653-17.487-18.653s-77.525-78.691-85.686-81.022c-8.16-2.332-31.476-20.985-35.557-32.642-4.08-11.658-12.823-109.002-8.743-115.414 4.08-6.412 19.236-15.155 19.236-15.155l53.626 23.316z" fill="#2F2E41"/><path d="M331.214 618.996s36.14 1.166 36.723 9.909c.583 8.744-15.156 60.622-12.824 72.863 2.331 12.24-18.07 40.219-31.476 34.39-13.407-5.829-2.915-36.139-2.915-36.139s-13.407-41.386-11.075-41.969c2.332-.583 25.647-7.577 24.482-14.572-1.166-6.995-2.915-24.482-2.915-24.482z" fill="#2F2E41"/><path d="M201.52 98.1783c19.959 0 36.139-16.1803 36.139-36.1396 0-19.9593-16.18-36.1396-36.139-36.1396-19.96 0-36.14 16.1803-36.14 36.1396 0 19.9593 16.18 36.1396 36.14 36.1396z" fill="#FFB9B9"/><path d="M237.951 117.705s-19.819 20.985-34.391 17.487c-14.573-3.497-22.15-28.562-22.15-28.562l-26.23-4.663s-18.653 82.771-18.653 90.932c0 8.16 18.653 96.178 18.653 111.916s-15.156 25.065 8.16 24.482c23.316-.583 12.241-8.161 46.049-8.744 33.808-.583 39.054 6.995 46.049-5.246 4.77-7.986 10.659-15.249 17.487-21.567l-12.241-43.134-1.749-121.826s-14.944-29.1445-21.753-26.813c0 0 3.683 12.824.769 15.738z" fill="#4872EC"/><path d="M230.771 96.8117s31.079 3.4063 39.822 9.8183c8.743 6.412 33.225 11.075 32.642 15.738-.583 4.664-28.562 71.114-28.562 71.114s-12.823 52.461-1.748 64.701c11.075 12.241 52.46 145.724 45.466 156.799-6.995 11.076-29.145-33.808-29.145-33.808s-29.728-96.177-46.049-112.499c-16.321-16.321-17.487-104.338-17.487-108.418 0-4.081 5.061-63.4453 5.061-63.4453zM185.313 103.572s-38.294-14.4287-51.701-8.5997c-13.406 5.8287-21.567 6.9947-21.567 6.9947l-4.663 57.124s-1.749 82.188-16.904 102.007c-15.1553 19.818-25.0645 102.59-22.733 110.75 2.3316 8.161-4.0803 22.15 5.829 18.653 9.9093-3.498 37.305-83.937 37.305-83.937s0-46.049 16.322-58.873c16.321-12.824 43.134-65.867 44.3-78.691 1.165-12.824 12.24-48.38 12.24-48.38l1.572-17.048z" fill="#575A89"/><path d="M316.642 287.328s-17.487 32.642-19.819 38.471c-2.331 5.829-18.652 45.466-41.968 36.723-23.316-8.744 22.733-51.295 22.733-51.295l10.492-35.557s27.396-5.829 28.562 11.658z" fill="#FFB9B9"/><path d="M117.874 101.967h-5.829s-5.829-4.6631-12.8236-1.749c-6.9947 2.915-23.3159-1.1654-23.3159.583 0 1.749-18.0697-5.2458-25.6474-1.7484-7.5776 3.4974-34.9738 4.6634-34.9738 4.6634s-11.07498 27.979-3.4973 33.225c7.5776 5.246 18.6526 1.166 23.8987 5.246 5.2461 4.08 15.1553-.583 18.6527 4.663 3.4974 5.246 16.3211 14.573 19.2356 8.744 2.9145-5.829-2.9145-11.075 9.3263-4.664 12.2408 6.412 31.4767 6.412 31.4767 6.412l3.497-55.375z" fill="#575A89"/><path d="M204.778 35.3371c-4.891-1.13-9.967.1222-14.921.934-4.953.8117-10.412 1.0793-14.601-1.6843-3.095-2.041-4.997-5.4176-6.784-8.6655-.745-1.1599-1.242-2.4618-1.459-3.8235-.21-2.402 1.318-4.5936 2.941-6.3772 7.537-8.2848 18.551-12.81928 29.658-14.25966 9.13-1.183998 18.65-.3911 27.081 3.307 8.432 3.6981 15.68 10.47036 18.995 19.05976 1.526 4.3962 2.48 8.9709 2.836 13.6109.501 3.414.566 6.8778.192 10.3079-.447 2.5429-1.115 5.0418-1.998 7.468l-5.491 16.5808c-.395 1.5669-1.132 3.0266-2.159 4.2741-.528.611-1.239 1.0345-2.028 1.2073-.789.1728-1.612.0854-2.347-.2489.44-1.801.507-3.6727.197-5.5005-.172-.9109-.612-1.7495-1.265-2.4077-.653-.6583-1.488-1.106-2.397-1.2855-2.024-.2148-3.753 1.3542-5.673 2.0299-.923.2737-1.893.3534-2.849.2339-.956-.1195-1.877-.4355-2.704-.9281-.828-.4927-1.544-1.1513-2.105-1.9344-.561-.7832-.953-1.6739-1.153-2.6162-.303-1.8956.206-3.9249-.513-5.705-.841-2.0857-3.074-3.1786-4.751-4.6773-1.53-1.4122-2.626-3.2319-3.157-5.2453-.532-2.0134-.477-4.1367.156-6.1203.449-1.3799 1.717-2.0072 1.464-3.5924-.333-2.0797-3.399-3.5337-5.165-3.9418z" fill="#2F2E41"/><path d="M52 383.622H0v2.108h52v-2.108zM52 389.946H0v2.108h52v-2.108zM52 396.27H0v2.108h52v-2.108z" fill="#3F3D56"/><path d="M21.3076 103.682c10.6285.462 18.5258 10.101 17.376 20.677-1.0416 9.582-4.884 21.505-16.9874 26.085-21.567164 8.16-20.40138-37.889-16.32111-39.637 2.72023-1.166 6.99481-7.513 15.93251-7.125z" fill="#FFB9B9"/><path d="M296.823 119.254l6.412 3.114s13.99 28.562 14.573 32.643c.583 4.08 9.909 19.235 6.411 23.316-3.497 4.08-8.743 14.572-5.246 18.652 3.498 4.08 11.658 20.402 11.658 26.231 0 5.829-8.743 21.567-2.914 23.315 5.829 1.749 4.08 24.482 2.914 26.231-1.165 1.748-16.321 30.31-16.321 30.31s-2.914-32.642-31.476-19.235c0 0-2.332-16.321 0-17.487 2.331-1.166 8.16-8.161 3.497-9.326-4.663-1.166-11.075-15.156-9.909-16.904 1.166-1.749 4.08-4.081 1.166-5.829-2.915-1.749-5.246-11.658-4.663-13.407.582-1.749-6.412-9.909-6.412-9.909l30.31-91.715z" fill="#575A89"/></svg>