<svg width="188" height="189" viewBox="0 0 188 189" fill="none" xmlns="http://www.w3.org/2000/svg"><path d="M160.468 160.968c13.146-13.146 22.099-29.895 25.726-48.13 3.627-18.2337 1.765-37.134-5.349-54.3102-7.115-17.1763-19.163-31.8571-34.621-42.1859C130.765 6.01303 112.591.500013 94 .5v94l66.468 66.468z" fill="#3F3D56"/><path d="M94 .5C73.1069.502489 52.81 7.46475 36.3144 20.2873 19.8189 33.1099 8.0647 51.062 2.90818 71.3088-2.24834 91.5555-.513396 112.943 7.83903 132.094c8.35247 19.151 22.84637 34.974 41.19297 44.97L94 94.5V.5z" fill="#4872EC"/><path d="M160.468 160.968L94 94.5l-44.968 82.564c17.825 9.698 38.3087 13.371 58.393 10.47 20.084-2.901 38.691-12.22 53.043-26.566z" fill="#575A89"/></svg>