<svg width="153" height="473" viewBox="0 0 153 473" fill="none" xmlns="http://www.w3.org/2000/svg"><path d="M58.1629 84.7399l15.8588.6678.7907-22.1423-15.8588-.6678-.7907 22.1423z" fill="#6C63FF"/><path d="M130.493 140.145s21.962-11.395 21.61-1.554c-.351 9.841-22.137 16.315-22.137 16.315l.527-14.761z" fill="#FFB9B9"/><path d="M118.443 223.412s10.362 27.54 14.19 47.413c3.828 19.873 9.659 47.222 2.159 66.617-7.499 19.396-28.821 76.401-29.041 82.552-.219 6.151 1.827 12.397-2.705 12.206-4.5306-.191-29.1881-8.621-30.1891-12.359-1.001-3.738 8.4126-13.198 8.4126-13.198l23.2455-79.099-24.2531-51.533-17.4934 76.878-3.4263 95.95s-16.8159-5.636-19.2572-.811c0 0-7.534-11.405-8.4911-16.373-.9571-4.968 3.5581-99.641 3.5581-99.641s-15.4355-107.832-2.975-107.307c12.4605.525 61.2669-31.915 86.266-1.295z" fill="#2F2E41"/><path d="M103.222 427.279s11.494 27.588 12.583 28.866c1.089 1.277 8.579 13.913 2.915 13.674-5.664-.238-19.0373-6.961-28.8808-17.232-9.8436-10.27-22.8219-28.064-21.6452-29.247 1.1767-1.182 9.2379-4.539 9.2379-4.539l25.7901 8.478zM57.2962 442.593s.6935 12.349 2.7834 17.365c2.0898 5.016 1.8263 12.397-3.8376 12.158-5.6639-.239-20.3021-3.319-20.3021-3.319s-.8692-7.428.3075-8.611c1.1767-1.182 6.191-14.523 4.0573-18.309-2.1338-3.785 16.9915.716 16.9915.716z" fill="#2F2E41"/><path d="M48.917 41.8473S36.8425 62.2825 32.1357 67.0122c-4.7068 4.7297 8.5351 15.1431 8.5351 15.1431l23.7004 3.462s-.2982-23.4201.9224-25.8327c1.2207-2.4125-16.3766-17.9373-16.3766-17.9373z" fill="#FFB9B9"/><path d="M69.5172 68.5863s-4.8825 9.6503-9.4136 9.4595c-4.5311-.1909-27.9679-11.0336-28.9689-14.7717-1.001-3.7381-7.763 26.7766-7.763 26.7766L80.7198 199.648l13.9887-10.499-6.778-64.348-5.5667-34.7301-12.8466-21.4846z" fill="#4872EC"/><path d="M29.0195 166.671c2.2876 5.197 3.7163 10.616 3.5182 16.164-.0088.246-.0176.492-.0377.738-.5427 11.385-4.4049 24.552-5.7906 34.128-1.0054 6.869-.7193 11.883 2.9824 13.061 8.9743 2.842-1.3085 4.873 33.4121 17.423 34.7206 12.55 40.7801 1.717 40.8681-.743.087-2.46-4.9175-21.151-3.741-22.333 1.177-1.182 16.465 15.477 21.084 13.208 4.619-2.27.527-14.762.527-14.762s-10.406-26.31-10.186-32.46c.22-6.151-15.7615-35.159-15.7615-35.159L85.0246 79.0952S80.845 69.0634 75.225 67.5947c-5.6199-1.4686-10.2828 2.0309-10.2828 2.0309l9.4043 22.5717 9.9221 39.8407-1.6599 14.714s-11.538-26.357-19.116-36.532c-7.578-10.175-23.735-34.263-23.735-34.263s-3.7721-13.8215-.9245-17.9519c2.8479-4.1427-11.8781-4.7628-18.1569 12.2204-3.3279 9.0012-8.7308 22.424-12.11537 34.9215-3.01599 11.072-4.44065 21.422-1.45267 27.338 4.56684 9.038 16.05464 20.918 21.91124 34.186z" fill="#575A89"/><path opacity=".1" d="M7.10823 132.485c4.56687 9.038 16.05467 20.917 21.91127 34.186 1.5296-5.984 3.3957-12.177 3.3957-12.177s7.1574-41.585-14.0138-52.333c-3.508-.368-7.0164.696-9.84049 2.986-3.01601 11.072-4.44066 21.422-1.45268 27.338z" fill="#000"/><path d="M91.1531 129.864l17.9489 5.684 24.921 1.05 2.564 23.515-40.9561 3.203s-10.2295-31.23-4.4778-33.452z" fill="#575A89"/><path d="M61.8853 208.931s24.0117 4.326 18.5313 12.173c-5.4804 7.847-26.7519-.403-26.7519-.403l8.2206-11.77z" fill="#FFB9B9"/><path opacity=".1" d="M32.5 183.573c-.5427 11.385-4.4049 24.552-5.7906 34.128 7.6493 7.862 14.9232 14.796 17.6645 14.912 5.6639.238 14.77-.61 18.1244.763 3.3544 1.373 5.3218-21.952 5.3218-21.952s-2.002-7.476-10.9324-11.548c-6.0279-2.755-17.5823-10.227-24.3877-16.303z" fill="#000"/><path d="M18.6649 94.7804S-.504373 91.5092.531221 126.048c1.035589 34.539-2.020631 56.586 5.689149 63.071 7.70973 6.484 32.75323 35.874 38.41713 36.113 5.6638.238 14.77-.61 18.1244.763 3.3543 1.373 5.3217-21.951 5.3217-21.951s-2.002-7.477-10.9324-11.549c-8.9304-4.072-29.9699-18.509-29.7942-23.43.1757-4.92 5.3218-21.951 5.3218-21.951s7.1574-41.586-14.0139-52.3336z" fill="#575A89"/><path d="M65.8208 72.1063c13.7738 0 24.9397-12.1256 24.9397-27.0832 0-14.9576-11.1659-27.0832-24.9397-27.0832-13.7739 0-24.9398 12.1256-24.9398 27.0832 0 14.9576 11.1659 27.0832 24.9398 27.0832z" fill="#FFB9B9"/><path d="M82.6133 6.20505c.6016.56283 1.3219.95539 2.097 1.14275.3891.07532.7898-.01957 1.1147-.26396.3249-.24439.5476-.61844.6194-1.04049.5706 1.28504 1.2144 2.65464 2.3794 3.31401 1.165.65934 2.9664.10647 3.1343-1.30846.1701 1.07432.6078 2.0776 1.2656 2.901.7228.7484 2.0335.9373 2.6646.0967-.5102 3.0278-.1953 6.1415-.3555 9.2146-.1602 3.0731-.9148 6.331-3.0529 8.3518-3.118 2.947-7.8068 2.2197-11.9084 1.6613-.6203-.1413-1.2638-.1031-1.8662.1109-1.5358.7105-1.4661 3.0321-1.4868 4.8448-.1253 3.1805-1.2844 6.2098-3.2716 8.5501-1.9872 2.3403-4.6739 3.8402-7.5829 4.2332-1.628.2728-3.2891-.1674-4.6183-1.224-1.1646-1.072-1.7594-2.8191-3.0938-3.6243-2.1707-1.3098-4.8032.6004-6.3902 2.6745-1.587 2.0741-3.1512 4.6254-5.6097 5.0051-3.2515.5021-5.728-3.0963-6.943-6.4098-1.6764-4.644-2.4795-9.6056-2.362-14.592.1174-4.9865 1.153-9.897 3.0458-14.4419C47.1821-.670574 70.3744-3.2126 82.6133 6.20505z" fill="#2F2E41"/></svg>