<svg width="78" height="85" viewBox="0 0 78 85" fill="none" xmlns="http://www.w3.org/2000/svg"><path opacity=".3" d="M38.82 84.0799c21.2802 0 38.5311-18.7335 38.5311-41.8425S60.1002.394806 38.82.394806C17.5399.394806.288879 19.1284.288879 42.2374c0 23.109 17.251021 41.8425 38.531121 41.8425z" fill="#6C63FF"/><path opacity=".3" d="M38.82 70.1324c14.1868 0 25.6874-12.489 25.6874-27.895 0-15.4061-11.5006-27.8951-25.6874-27.8951-14.1867 0-25.6874 12.489-25.6874 27.8951 0 15.406 11.5007 27.895 25.6874 27.895z" fill="#6C63FF"/><path d="M38.82 61.6089c9.8519 0 17.8384-8.6729 17.8384-19.3715S48.6719 22.8658 38.82 22.8658s-17.8385 8.673-17.8385 19.3716S28.9681 61.6089 38.82 61.6089z" fill="#4872EC"/></svg>