<svg width="78" height="85" viewBox="0 0 78 85" fill="none" xmlns="http://www.w3.org/2000/svg"><path opacity=".3" d="M38.7383 84.3381c21.2801 0 38.5311-18.7335 38.5311-41.8426 0-23.109-17.251-41.842531-38.5311-41.842531S.207275 19.3865.207275 42.4955c0 23.1091 17.250925 41.8426 38.531025 41.8426z" fill="#6C63FF"/><path opacity=".3" d="M38.7383 70.3906c14.1868 0 25.6874-12.4891 25.6874-27.8951 0-15.406-11.5006-27.895-25.6874-27.895-14.1867 0-25.6873 12.489-25.6873 27.895 0 15.406 11.5006 27.8951 25.6873 27.8951z" fill="#6C63FF"/><path d="M38.7383 61.8671c9.8519 0 17.8385-8.673 17.8385-19.3716S48.5902 23.124 38.7383 23.124s-17.8384 8.6729-17.8384 19.3715 7.9865 19.3716 17.8384 19.3716z" fill="#4872EC"/></svg>