<svg width="78" height="85" viewBox="0 0 78 85" fill="none" xmlns="http://www.w3.org/2000/svg"><path opacity=".3" d="M38.9522 84.6395c21.2801 0 38.5311-18.7336 38.5311-41.8426 0-23.109-17.251-41.842554-38.5311-41.842554S.421204 19.6879.421204 42.7969c0 23.109 17.250896 41.8426 38.530996 41.8426z" fill="#6C63FF"/><path opacity=".3" d="M38.9522 70.692c14.1867 0 25.6874-12.4891 25.6874-27.8951 0-15.406-11.5007-27.895-25.6874-27.895-14.1868 0-25.6874 12.489-25.6874 27.895 0 15.406 11.5006 27.8951 25.6874 27.8951z" fill="#6C63FF"/><path d="M38.9522 62.1685c9.8519 0 17.8384-8.673 17.8384-19.3716s-7.9865-19.3716-17.8384-19.3716-17.8385 8.673-17.8385 19.3716 7.9866 19.3716 17.8385 19.3716z" fill="#4872EC"/></svg>